<?xml version="1.0" standalone="no"?>
<!DOCTYPE svg PUBLIC "-//W3C//DTD SVG 20010904//EN"
 "http://www.w3.org/TR/2001/REC-SVG-20010904/DTD/svg10.dtd">
<svg version="1.0" xmlns="http://www.w3.org/2000/svg"
 width="700.000000pt" height="700.000000pt" viewBox="0 0 700.000000 700.000000"
 preserveAspectRatio="xMidYMid meet">
<metadata>
Created by potrace 1.11, written by Peter Selinger 2001-2013
</metadata>
<g transform="translate(0.000000,700.000000) scale(0.100000,-0.100000)"
fill="#000000" stroke="none">
<path d="M3510 6985 c-7 -9 -15 -13 -18 -11 -2 3 -11 -2 -19 -10 -8 -8 -18
-12 -23 -9 -4 3 -13 -2 -20 -10 -7 -8 -18 -15 -24 -15 -6 0 -23 -10 -36 -22
-104 -93 -111 -95 -302 -113 -63 -6 -72 -13 -112 -87 -21 -40 -41 -75 -43 -77
-6 -8 -83 72 -83 86 0 7 -10 12 -22 12 -13 -1 -57 4 -98 10 -157 24 -151 23
-169 4 -9 -10 -30 -39 -47 -65 -63 -96 -95 -124 -154 -134 -14 -3 -47 -9 -75
-14 -27 -5 -68 -13 -90 -16 -22 -3 -43 -9 -47 -12 -3 -4 2 -56 13 -117 11 -60
22 -125 25 -144 3 -18 8 -43 10 -55 3 -11 7 -34 9 -51 2 -16 10 -68 19 -115 8
-47 17 -100 20 -117 12 -70 16 -89 22 -113 3 -14 7 -141 8 -283 l2 -257 49
-100 50 -100 115 -48 c63 -27 147 -61 186 -77 l72 -27 43 -127 c24 -69 44
-128 45 -131 0 -3 4 -14 8 -25 5 -11 9 -25 11 -32 2 -7 -25 -38 -61 -69 l-64
-57 0 -99 c0 -104 6 -121 65 -183 11 -12 35 -39 53 -61 l33 -39 -6 -80 c-4
-44 -9 -88 -10 -97 -2 -9 -6 -45 -10 -80 -3 -35 -8 -74 -10 -88 -2 -14 -6 -52
-10 -85 -8 -81 -15 -143 -20 -185 -3 -19 -7 -62 -10 -95 -3 -33 -8 -71 -10
-85 -2 -14 -7 -52 -10 -85 -4 -33 -9 -73 -11 -90 -2 -16 -6 -52 -9 -80 -3 -27
-8 -72 -11 -100 -4 -27 -8 -70 -10 -95 -1 -25 -3 -45 -4 -45 -2 0 -7 -40 -14
-117 -4 -37 -9 -77 -11 -90 -2 -13 -7 -52 -10 -88 -3 -36 -8 -78 -10 -95 -2
-16 -7 -52 -9 -80 -3 -27 -8 -66 -10 -85 -3 -19 -8 -57 -10 -85 -16 -163 -22
-183 -61 -203 -107 -55 -125 -67 -125 -83 0 -10 -3 -19 -8 -21 -9 -4 -78 -118
-76 -127 1 -3 5 -26 8 -51 4 -25 10 -61 14 -80 9 -38 5 -43 -110 -142 -40 -35
-49 -49 -63 -107 -10 -36 -23 -83 -31 -103 -8 -21 -12 -38 -9 -38 2 0 1 -10
-4 -23 -7 -18 -20 -119 -24 -184 0 -6 -28 -39 -61 -71 -34 -33 -62 -68 -63
-78 -6 -56 -14 -131 -18 -158 -17 -127 -18 -122 28 -219 24 -50 56 -122 72
-159 28 -66 40 -76 95 -82 3 -1 23 -7 45 -13 22 -7 105 -31 185 -53 80 -22
168 -47 195 -55 28 -9 62 -18 76 -20 14 -3 51 -13 83 -24 49 -16 90 -20 237
-21 97 0 188 -4 201 -7 12 -3 106 -7 208 -8 102 -1 289 -5 416 -9 l231 -7 109
42 c60 22 118 45 129 50 11 5 53 21 94 36 71 27 74 30 88 73 8 25 15 52 17 60
1 8 10 40 19 71 10 31 20 66 22 78 7 30 13 52 23 86 5 17 8 46 6 65 -2 19 -5
82 -8 139 l-5 104 -69 71 c-50 50 -69 77 -66 91 10 49 11 148 3 182 -12 47
-15 61 -33 143 -22 101 -26 107 -111 158 l-80 48 -13 60 c-8 32 -18 82 -24
110 -8 38 -18 55 -37 67 -14 8 -35 24 -46 34 -11 10 -41 33 -67 51 l-48 33 -1
67 c-1 77 -4 142 -13 297 -4 61 -9 155 -11 210 -11 254 -15 345 -19 405 -3 36
-8 137 -12 225 -3 88 -8 187 -10 220 -1 33 -5 112 -8 175 -3 63 -8 160 -11
215 -17 299 -16 317 5 337 10 10 22 18 26 18 11 0 108 72 117 86 4 7 22 32 40
56 30 40 32 48 31 116 -2 93 -2 92 -16 92 -7 0 -29 10 -48 22 -19 12 -37 22
-40 23 -3 0 -15 7 -28 14 -21 11 -22 15 -10 29 8 9 61 95 117 190 57 94 106
174 110 176 3 2 33 7 66 10 72 6 235 19 253 19 12 0 54 44 117 122 17 21 35
43 41 49 6 7 24 75 39 152 15 76 28 146 30 154 2 8 17 87 35 175 17 88 34 169
36 180 3 11 7 34 9 50 3 17 7 39 9 50 3 11 18 88 35 170 17 83 39 174 50 203
11 28 18 52 16 52 -2 0 3 16 11 35 21 52 16 65 -10 22 -32 -52 -38 -56 -24
-16 6 19 14 36 18 39 6 4 21 35 25 50 0 3 9 20 18 38 14 25 15 33 5 37 -12 4
-184 13 -293 14 -48 1 -52 3 -90 52 -22 28 -47 59 -55 69 -8 9 -27 32 -41 49
l-26 32 -114 -3 c-109 -3 -114 -4 -117 -25 -3 -22 -6 -21 -65 18 -34 23 -69
50 -77 61 -14 16 -33 22 -115 32 -35 4 -41 13 -74 104 l-33 89 -99 47 c-94 43
-106 46 -183 46 -63 0 -87 -4 -96 -15z"/>
</g>
</svg>
